<?xml version="1.0" encoding="utf-8"?>
<!-- Generator: Adobe Illustrator 16.0.0, SVG Export Plug-In . SVG Version: 6.00 Build 0)  -->
<!DOCTYPE svg PUBLIC "-//W3C//DTD SVG 1.1//EN" "http://www.w3.org/Graphics/SVG/1.1/DTD/svg11.dtd">
<svg version="1.1" id="Capa_1" xmlns="http://www.w3.org/2000/svg" xmlns:xlink="http://www.w3.org/1999/xlink" x="0px" y="0px"
	 width="43.438px" height="41.27px" viewBox="0 0 43.438 41.27" enable-background="new 0 0 43.438 41.27" xml:space="preserve">
<g opacity="0.53">
	<g>
		<path fill="#FFFFFF" d="M25.214,2.391c-0.185-0.289-0.244-0.484-0.244-0.484l0.088-0.082c0,0,0.175,0.073,0.476,0.197
			c0.143,0.058,0.316,0.127,0.517,0.204c0.197,0.073,0.411,0.155,0.642,0.212c0.111,0.035,0.229,0.07,0.347,0.083
			c0.059,0.008,0.119,0.024,0.177,0.035c0.06,0.005,0.117,0.008,0.177,0.015c0.236,0.03,0.456,0.005,0.695-0.007
			c0.11-0.041,0.234-0.053,0.354-0.105c0.112-0.064,0.257-0.102,0.359-0.187c0.055-0.038,0.109-0.075,0.172-0.115
			c0.063-0.035,0.13-0.063,0.197-0.135l0.422-0.356c0.004-0.005-0.025,0.037-0.011,0.018l0.011-0.01l0.012-0.01l0.03-0.025
			l0.055-0.05l0.109-0.098l0.21-0.199c0.132-0.135,0.3-0.242,0.432-0.371c0.13-0.135,0.307-0.22,0.446-0.35
			c0.149-0.117,0.324-0.207,0.491-0.321c0.354-0.165,0.769-0.29,1.14-0.237c0.092,0.01,0.183,0.025,0.271,0.04
			c0.085,0.024,0.168,0.055,0.247,0.085c0.162,0.052,0.305,0.129,0.437,0.206c0.265,0.152,0.477,0.33,0.644,0.502
			s0.295,0.339,0.384,0.486c0.096,0.143,0.15,0.27,0.189,0.356c0.033,0.087,0.048,0.135,0.048,0.135l-0.087,0.084
			c0,0-0.192-0.064-0.484-0.187c-0.142-0.057-0.313-0.13-0.514-0.21c-0.192-0.077-0.401-0.164-0.624-0.239
			c-0.111-0.042-0.227-0.085-0.341-0.111c-0.06-0.016-0.117-0.038-0.175-0.055c-0.06-0.011-0.12-0.025-0.177-0.046
			c-0.239-0.077-0.486-0.154-0.794-0.187c-0.139,0.021-0.306,0.013-0.454,0.072c-0.139,0.072-0.299,0.127-0.413,0.254
			c-0.112,0.122-0.242,0.229-0.322,0.385l-0.117,0.231l-0.053,0.117L30.154,1.99l-0.012,0.029l-0.005,0.014L30.135,2.04
			l-0.003,0.005c0.011-0.018-0.017,0.027-0.017,0.025l-0.228,0.501c-0.075,0.162-0.246,0.347-0.387,0.506
			C29.359,3.254,29.17,3.354,29,3.491c-0.179,0.125-0.394,0.197-0.594,0.287C27.985,3.9,27.544,3.92,27.173,3.823
			c-0.19-0.042-0.365-0.097-0.52-0.177c-0.16-0.067-0.3-0.152-0.429-0.234c-0.26-0.173-0.467-0.354-0.629-0.534
			C25.429,2.706,25.307,2.536,25.214,2.391L25.214,2.391z M43.438,30.916V41.27H0V30.916h2.958V19.281l8.34-5.849v5.849l8.335-5.849
			v5.849l8.338-5.849v11.497h2.877l1.564-20.338h4.769l1.366,20.338h3.207v5.986H43.438z M13.617,26.443H7.061v6.051h6.557V26.443z
			 M24.913,26.443h-6.558v6.051h6.558V26.443z M36.351,26.443h-6.558v6.051h6.558V26.443z M36.351,26.443"/>
	</g>
</g>
</svg>
