<?xml version="1.0" encoding="utf-8"?>
<!-- Generator: Adobe Illustrator 16.0.0, SVG Export Plug-In . SVG Version: 6.00 Build 0)  -->
<!DOCTYPE svg PUBLIC "-//W3C//DTD SVG 1.1//EN" "http://www.w3.org/Graphics/SVG/1.1/DTD/svg11.dtd">
<svg version="1.1" id="Capa_1" xmlns="http://www.w3.org/2000/svg" xmlns:xlink="http://www.w3.org/1999/xlink" x="0px" y="0px"
	 width="33.695px" height="33.728px" viewBox="0 0 33.695 33.728" enable-background="new 0 0 33.695 33.728" xml:space="preserve">
<g>
	<path opacity="0.53" fill="#FFFFFF" d="M16.848,0L0,10.783v22.944h6.147l0,0H5.391V23.601l-0.534,0.001
		c-1.918,0.003-3.476-1.551-3.479-3.47l-0.001-0.773l0.773-0.001c1.473-0.002,3.111,0.913,3.619,2.207
		c0.507-1.294,2.146-2.209,3.619-2.207l0.773,0.001l-0.001,0.773c-0.003,1.919-1.56,3.473-3.479,3.47l-0.534-0.001v10.127l0,0h5.385
		l0,0h-0.757V17.47l-0.534,0.001c-1.918,0.002-3.476-1.552-3.479-3.47l-0.001-0.773l0.773-0.002
		c1.473-0.001,3.111,0.914,3.619,2.207c0.507-1.293,2.146-2.208,3.619-2.206l0.773,0.001l-0.001,0.773
		c-0.003,1.919-1.56,3.472-3.479,3.47l-0.534-0.001v16.258l0,0h5.28l0,0h-0.343V23.601l-0.534,0.001
		c-1.919,0.003-3.477-1.551-3.479-3.47l-0.001-0.773l0.773-0.001c1.446-0.002,3.045,0.882,3.583,2.138V21.48
		c0.012,0.027,0.024,0.055,0.036,0.083v0.001c0.38-0.971,1.397-1.728,2.503-2.045c0.369-0.105,0.747-0.162,1.115-0.162l0.774,0.001
		l0,0l0,0l-0.002,0.773c0,0.24-0.024,0.475-0.071,0.7c-0.233,1.131-1.015,2.061-2.055,2.498c-0.416,0.176-0.873,0.272-1.353,0.271
		l-0.534-0.001v10.127l0,0h5.716l0,0h-0.757V17.47l-0.534,0.001c-1.918,0.002-3.476-1.552-3.479-3.47l-0.001-0.773l0.773-0.002
		c1.474-0.001,3.112,0.914,3.619,2.207c0.507-1.293,2.146-2.208,3.618-2.206l0.773,0.001l-0.001,0.773
		c-0.003,1.919-1.56,3.472-3.479,3.47l-0.534-0.001v16.258l0,0h5.651l0,0h-0.757V23.601l-0.533,0.001
		c-1.919,0.003-3.477-1.551-3.479-3.47l-0.001-0.773l0.773-0.001c1.474-0.002,3.111,0.913,3.619,2.207
		c0.507-1.294,2.146-2.209,3.618-2.207l0.773,0.001l-0.001,0.773c-0.003,1.919-1.56,3.473-3.479,3.47l-0.534-0.001v10.127l0,0h5.103
		V10.783L16.848,0z"/>
	<path fill="#549459" d="M21.24,19.358L21.24,19.358l-0.774-0.001c-0.368,0-0.746,0.057-1.115,0.162
		c0.369-0.105,0.747-0.162,1.115-0.162L21.24,19.358z"/>
	<path fill="#549459" d="M19.351,19.52c-1.105,0.317-2.123,1.074-2.503,2.045v-0.001v0.001
		C17.228,20.594,18.245,19.837,19.351,19.52z"/>
	<path fill="#36605E" d="M16.812,21.48v0.015c0.01,0.023,0.026,0.045,0.036,0.068C16.836,21.535,16.824,21.508,16.812,21.48z"/>
</g>
</svg>
