<?xml version="1.0" encoding="utf-8"?>
<!-- Generator: Adobe Illustrator 16.0.0, SVG Export Plug-In . SVG Version: 6.00 Build 0)  -->
<!DOCTYPE svg PUBLIC "-//W3C//DTD SVG 1.1//EN" "http://www.w3.org/Graphics/SVG/1.1/DTD/svg11.dtd">
<svg version="1.1" id="Capa_1" xmlns="http://www.w3.org/2000/svg" xmlns:xlink="http://www.w3.org/1999/xlink" x="0px" y="0px"
	 width="47.247px" height="34.07px" viewBox="0 0 47.247 34.07" enable-background="new 0 0 47.247 34.07" xml:space="preserve">
<g>
	<g>
		<path fill="#FFFFFF" d="M35.355,0.343C30.957,1.734,29.429,6.295,29.69,8.2c0.08-0.058,0.16-0.115,0.24-0.179
			c2.96-2.234,6.316-3.325,9.738-3.955c1.557-0.288,2.619-0.341,2.619-0.341s-8.807,3.193-12.098,5.67
			c-3.767,2.829-5.53,7.471-6.567,12.522c-1.032-5.052-2.8-9.693-6.562-12.522C13.771,6.925,4.964,3.731,4.964,3.731
			s1.062,0.052,2.62,0.341c3.421,0.629,6.783,1.721,9.738,3.955c0.08,0.063,0.16,0.115,0.24,0.179
			c0.255-1.905-1.272-6.466-5.666-7.857C7.108-1.164,2.545,2.854,0,2.687c3.506,2.893,3.997,5.739,9.092,8.291
			c3.461,1.731,5.791,0.739,7.128-0.555c0.03,0.035,4.248,3.037,6.402,12.783c-4.718,0.468-8.396,4.18-8.396,8.694
			c0,2.928,18.8,2.858,18.8,0c0-4.515-3.678-8.227-8.391-8.694c2.144-9.758,6.361-12.754,6.392-12.788
			c1.333,1.293,3.667,2.286,7.128,0.554c5.095-2.552,5.591-5.404,9.092-8.291C44.708,2.849,40.134-1.176,35.355,0.343L35.355,0.343z
			 M35.355,0.343"/>
	</g>
</g>
</svg>
